<?xml version="1.0" encoding="utf-8"?>
<!-- Generator: Adobe Illustrator 19.1.0, SVG Export Plug-In . SVG Version: 6.00 Build 0)  -->
<!DOCTYPE svg PUBLIC "-//W3C//DTD SVG 1.1//EN" "http://www.w3.org/Graphics/SVG/1.1/DTD/svg11.dtd">
<svg version="1.1" id="Layer_1" xmlns="http://www.w3.org/2000/svg" xmlns:xlink="http://www.w3.org/1999/xlink" x="0px" y="0px"
	 viewBox="0 0 85.0393677 102.8462906" enable-background="new 0 0 85.0393677 102.8462906" xml:space="preserve">
<g>
	<rect fill="#030405" width="85.0393677" height="85.0393677"/>
	<path fill="#FFFFFF" d="M15.0138578,44.5122185c0,7.9661369,11.8392591,14.4237633,26.441433,14.4237633
		c14.6039848,0,26.4486389-6.4576263,26.4486389-14.4237633c0-5.4987946-5.6375542-10.2802658-13.9407234-12.7115517
		L41.4769249,44.5122185v-7.2397919l12.4862823-12.5836201c-3.7199326-1.0903797-8.0346336-1.708559-12.5547752-1.708559
		l0.0036201,7.1118279C26.8297043,30.1047192,15.0138578,36.5550995,15.0138578,44.5122185z"/>
	<g>
		<path d="M5.0266876,102.8462906c-0.7751446,0-1.4618471-0.0935287-2.0606146-0.2795639s-1.1045181-0.4472961-1.5167426-0.7847977
			c-0.412733-0.336998-0.7324485-0.7421112-0.9586383-1.215332c-0.2261898-0.4727097-0.3497047-0.9957428-0.3700364-1.569603
			H2.218884c0.1509628,1.4491425,1.0918107,2.1734543,2.8225441,2.1734543c0.3019252,0,0.5891104-0.0325317,0.860538-0.0980988
			c0.2719359-0.0650635,0.5108333-0.1657028,0.7171998-0.3019257c0.2058582-0.1357117,0.3669868-0.3064957,0.4828773-0.5128632
			c0.1153822-0.2063675,0.1733274-0.4503479,0.1733274-0.7324524c0-0.3014145-0.0676031-0.5504761-0.203825-0.7466812
			c-0.1357141-0.1967087-0.3293734-0.3624115-0.5809774-0.4981232c-0.2516046-0.1362228-0.5560713-0.2516022-0.9128923-0.3471603
			c-0.3573289-0.0955658-0.7573547-0.1936646-1.2000766-0.2948151c-0.5235405-0.1204605-1.019125-0.251091-1.4867535-0.392395
			c-0.4681368-0.1408005-0.8757868-0.3319168-1.22295-0.5733566s-0.6236739-0.5459061-0.8300404-0.9133987
			c-0.2063664-0.3669891-0.3095497-0.8325806-0.3095497-1.3962784c0-0.5331955,0.1031833-0.9982834,0.3095497-1.3957672
			s0.4955844-0.7299118,0.8681623-0.996254c0.3720696-0.2668533,0.8097088-0.4681396,1.3129175-0.6038513
			s1.0567389-0.2038269,1.6605892-0.2038269c1.3180003,0,2.3417001,0.2943039,3.0716071,0.8829041
			c0.7293983,0.5886002,1.1492476,1.4013596,1.2600551,2.437767H6.9734449
			c-0.0803099-0.5535278-0.3217483-0.9784622-0.7243156-1.2753067c-0.4025669-0.2968369-0.9357648-0.4452591-1.6001024-0.4452591
			c-0.6338396,0-1.13959,0.1230087-1.5167425,0.3695297c-0.3776608,0.2470245-0.566237,0.5962219-0.566237,1.0491104
			c0,0.2617722,0.0655696,0.478302,0.1962006,0.6490936c0.130631,0.1712875,0.3197155,0.3171692,0.566237,0.4376373
			c0.2465215,0.1209717,0.5433638,0.2266998,0.8905272,0.3171692c0.3471632,0.090477,0.7370229,0.180954,1.169579,0.271431
			c0.5235405,0.1108093,1.0242081,0.2414398,1.5020022,0.3924026s0.9032345,0.3547897,1.2753038,0.6114731
			c0.3725777,0.256691,0.6694202,0.5865707,0.891036,0.9886246c0.2211065,0.4025726,0.3319139,0.905777,0.3319139,1.5096283
			c0,0.5636978-0.1108074,1.061821-0.3319139,1.4943771c-0.2216158,0.4325562-0.526082,0.7949677-0.9134007,1.086731
			c-0.3873181,0.2917557-0.8478308,0.5159149-1.3810287,0.6714554
			C6.2287979,102.768013,5.6503615,102.8462906,5.0266876,102.8462906z"/>
		<path d="M12.8152418,98.7255707l-0.9510136,0.9505005v2.9135284H9.9622002V91.3594055h1.9020281v4.3469086
			c0,0.3827438-0.0076246,0.749733-0.0223646,1.1019745c-0.0152493,0.3522491-0.027956,0.6440048-0.0381222,0.8757858
			l3.0339937-3.1549606h2.2791796l-2.9582577,2.943512l3.3054218,5.1169739h-2.233943L12.8152418,98.7255707z"/>
		<path d="M22.8524799,102.5895996c-0.0706539-0.090477-0.1280899-0.2190704-0.1733284-0.3847733
			c-0.0452385-0.166214-0.0782757-0.3852844-0.0981007-0.6567154h-0.0304966
			c-0.2617702,0.3522491-0.5886021,0.6465454-0.9810028,0.8829041c-0.3924007,0.236351-0.9108601,0.3547897-1.5548649,0.3547897
			c-0.3924007,0-0.7573547-0.0503235-1.0943527-0.1509628c-0.3369961-0.100647-0.626215-0.2516098-0.8676529-0.4528885
			c-0.2414398-0.2012863-0.4330654-0.4503479-0.5738621-0.7471924s-0.2109413-0.6414642-0.2109413-1.0338669
			c0-0.4528885,0.0828514-0.8274994,0.2490635-1.1248474c0.1657028-0.2963333,0.394434-0.5357361,0.6867027-0.7166901
			c0.2917595-0.180954,0.6389217-0.3192062,1.0414886-0.4152756c0.4020596-0.0955582,0.8452892-0.1733246,1.328167-0.2338104
			c0.6643372-0.0803146,1.1624622-0.1936646,1.4943771-0.3395386c0.3319149-0.1458817,0.498127-0.400032,0.498127-0.7624435
			c0-0.3522415-0.1209736-0.6338348-0.3624134-0.8452835c-0.2414379-0.2114563-0.6038494-0.3166656-1.0867271-0.3166656
			c-0.5433636,0-0.948473,0.1153793-1.214817,0.3471603c-0.2668533,0.2312698-0.4101925,0.5484467-0.4305229,0.9505081h-1.8110447
			c0.0096588-0.3415756,0.0879345-0.6714554,0.2338142-0.9886322c0.1458797-0.3166656,0.3624134-0.5962219,0.6490898-0.8376617
			s0.6414642-0.4350967,1.0643616-0.5809784c0.4223919-0.1458817,0.920517-0.2190781,1.4938698-0.2190781
			c0.4630547,0,0.8732452,0.0355835,1.2305756,0.1057281c0.3568211,0.0706558,0.6663704,0.1916275,0.9281406,0.3624115
			c0.7644711,0.4630508,1.1472149,1.228035,1.1472149,2.294426v4.241188c0,0.332428,0.0274467,0.5886002,0.0828514,0.7700653
			c0.0554028,0.180954,0.1285973,0.3019257,0.2190723,0.3619003v0.1362228H22.8524799z M20.5732994,101.472374
			c0.3319149,0,0.6236744-0.0528641,0.8752785-0.1585846c0.2516041-0.105217,0.4630527-0.2414398,0.6343479-0.4071426
			c0.1707859-0.166214,0.3019257-0.3573303,0.3924007-0.5738602c0.090477-0.2160263,0.1357136-0.4401779,0.1357136-0.6714554
			v-1.1924515c-0.1911163,0.1204681-0.4279804,0.2241592-0.7095737,0.3095474
			c-0.2815952,0.0853958-0.5682716,0.1580811-0.8600311,0.2185669c-0.5941925,0.1108093-1.0516548,0.2541504-1.3739128,0.4300156
			c-0.3217487,0.1763763-0.4828758,0.4859238-0.4828758,0.9286499c0,0.2109375,0.0376129,0.3898621,0.113348,0.5357361
			c0.0752277,0.1458817,0.175869,0.2617722,0.3019257,0.347168c0.1255474,0.0853882,0.2739697,0.145874,0.4452629,0.1809464
			C20.215971,101.4550934,20.3923473,101.472374,20.5732994,101.472374z"/>
		<path d="M24.9354591,94.5291138h1.23769v-2.5658569h1.8867798v2.5658569h1.6153507v1.3134232h-1.6153507v4.5131226
			c0,0.2917557,0.0757351,0.4905014,0.2266979,0.5962219c0.1509628,0.1057281,0.3619041,0.1585922,0.6338387,0.1585922
			c0.1006432,0,0.2084007-0.0050812,0.3242912-0.0152512c0.1158905-0.0101624,0.2139912-0.0249023,0.2943001-0.0452347h0.0909843
			v1.4943771c-0.1611271,0.0299911-0.3471622,0.0574341-0.5586128,0.0828476
			c-0.2114487,0.02491-0.4478035,0.0376129-0.7095737,0.0376129c-0.322258,0-0.6185913-0.0325241-0.8905277-0.0980988
			c-0.2719364-0.0650635-0.5032082-0.170784-0.6943264-0.3166656s-0.3395386-0.3400497-0.4452648-0.5814819
			c-0.1057243-0.2414398-0.1585865-0.5382843-0.1585865-0.8905334v-4.9355087h-1.23769V94.5291138z"/>
		<path d="M29.9314594,94.5291138h1.23769v-2.5658569h1.8867779v2.5658569h1.6153526v1.3134232h-1.6153526v4.5131226
			c0,0.2917557,0.075737,0.4905014,0.2266998,0.5962219c0.1509628,0.1057281,0.3619041,0.1585922,0.6338387,0.1585922
			c0.1006432,0,0.2084007-0.0050812,0.3242912-0.0152512c0.1158905-0.0101624,0.2139893-0.0249023,0.2943001-0.0452347h0.0909843
			v1.4943771c-0.161129,0.0299911-0.3471642,0.0574341-0.5586128,0.0828476
			c-0.2114487,0.02491-0.4478035,0.0376129-0.7095757,0.0376129c-0.322258,0-0.6185913-0.0325241-0.8905258-0.0980988
			c-0.2719383-0.0650635-0.5032101-0.170784-0.6943283-0.3166656c-0.1911163-0.1458817-0.3395386-0.3400497-0.4452629-0.5814819
			c-0.1057243-0.2414398-0.1585865-0.5382843-0.1585865-0.8905334v-4.9355087h-1.23769V94.5291138z"/>
		<path d="M39.1086655,102.8310394c-0.6440048,0-1.2204094-0.1108093-1.7281914-0.3319168
			c-0.5082932-0.221611-0.9388161-0.5235367-1.290554-0.905777c-0.3527527-0.3822327-0.6216393-0.8325806-0.8076744-1.3510361
			c-0.1865425-0.517952-0.2790527-1.0740204-0.2790527-1.6677017c0-0.6038513,0.0950508-1.1650085,0.2866783-1.6829605
			c0.1911163-0.5184555,0.4625435-0.9688034,0.8147888-1.3510361c0.3522491-0.3822327,0.7751465-0.6816177,1.2681885-0.8981552
			c0.4930458-0.2165298,1.0364075-0.3247986,1.6300926-0.3247986s1.1192589,0.0981064,1.5772285,0.2943039
			c0.4579735,0.1962051,0.8579979,0.4757614,1.2000771,0.8381729c0.3924026,0.4223938,0.6841621,0.9383087,0.8752785,1.54673
			c0.1911201,0.6089325,0.2815933,1.2905579,0.2719383,2.045372h-6.0227509
			c0.070652,0.6943207,0.2892189,1.2554779,0.6567116,1.6829529c0.3669891,0.4279785,0.887989,0.6414642,1.5624924,0.6414642
			c0.4625435,0,0.8422394-0.092514,1.1395874-0.2790527c0.2963333-0.1860352,0.5103264-0.4452667,0.6414642-0.7771835h1.8715324
			c-0.1006432,0.361908-0.2541466,0.6968689-0.4605141,1.0033722c-0.2063675,0.307518-0.4655952,0.5738602-0.7771759,0.8000488
			c-0.3120918,0.2266998-0.6719627,0.4025726-1.0791054,0.5286255
			C40.0520554,102.768013,39.6017075,102.8310394,39.1086655,102.8310394z M39.0029411,95.7063141
			c-0.6338387,0-1.1167183,0.1961975-1.4491386,0.5891113c-0.3319168,0.3924026-0.5382805,0.9052658-0.6185913,1.5396118h4.0149956
			c-0.0406647-0.6643372-0.2292404-1.1853333-0.5662384-1.5624847
			C40.0469742,95.895401,39.5864601,95.7063141,39.0029411,95.7063141z"/>
		<path d="M47.6670303,102.8310394c-0.6440086,0-1.2204094-0.1108093-1.7281952-0.3319168
			c-0.5082893-0.221611-0.9388123-0.5235367-1.2905502-0.905777c-0.3527565-0.3822327-0.6216431-0.8325806-0.8076782-1.3510361
			c-0.1865425-0.517952-0.2790489-1.0740204-0.2790489-1.6677017c0-0.6038513,0.095047-1.1650085,0.2866745-1.6829605
			c0.1911163-0.5184555,0.4625473-0.9688034,0.8147926-1.3510361s0.7751427-0.6816177,1.2681885-0.8981552
			c0.493042-0.2165298,1.0364075-0.3247986,1.6300888-0.3247986c0.5936852,0,1.1192589,0.0981064,1.5772324,0.2943039
			c0.4579697,0.1962051,0.8579941,0.4757614,1.2000771,0.8381729c0.3923988,0.4223938,0.6841583,0.9383087,0.8752785,1.54673
			c0.1911163,0.6089325,0.2815933,1.2905579,0.2719345,2.045372h-6.0227509
			c0.0706558,0.6943207,0.2892189,1.2554779,0.6567154,1.6829529c0.3669853,0.4279785,0.8879852,0.6414642,1.5624886,0.6414642
			c0.4625435,0,0.8422394-0.092514,1.1395912-0.2790527c0.2963333-0.1860352,0.5103226-0.4452667,0.6414642-0.7771835h1.8715286
			c-0.1006432,0.361908-0.2541466,0.6968689-0.4605141,1.0033722c-0.2063637,0.307518-0.4655952,0.5738602-0.7771759,0.8000488
			c-0.3120918,0.2266998-0.6719627,0.4025726-1.0791054,0.5286255
			C48.6104164,102.768013,48.1600723,102.8310394,47.6670303,102.8310394z M47.5613022,95.7063141
			c-0.6338387,0-1.1167145,0.1961975-1.4491386,0.5891113c-0.331913,0.3924026-0.5382805,0.9052658-0.6185913,1.5396118h4.0149956
			c-0.0406609-0.6643372-0.2292366-1.1853333-0.5662346-1.5624847S48.1448212,95.7063141,47.5613022,95.7063141z"/>
		<path d="M51.5915489,94.5291138h1.23769v-2.5658569h1.8867798v2.5658569h1.6153526v1.3134232h-1.6153526v4.5131226
			c0,0.2917557,0.075737,0.4905014,0.2266998,0.5962219c0.150959,0.1057281,0.3619003,0.1585922,0.6338387,0.1585922
			c0.1006393,0,0.2084007-0.0050812,0.3242912-0.0152512c0.1158905-0.0101624,0.2139893-0.0249023,0.2943001-0.0452347h0.0909843
			v1.4943771c-0.161129,0.0299911-0.3471642,0.0574341-0.5586128,0.0828476
			c-0.2114487,0.02491-0.4478073,0.0376129-0.7095757,0.0376129c-0.322258,0-0.6185913-0.0325241-0.8905258-0.0980988
			c-0.2719383-0.0650635-0.503212-0.170784-0.6943283-0.3166656s-0.3395386-0.3400497-0.4452629-0.5814819
			c-0.1057243-0.2414398-0.1585884-0.5382843-0.1585884-0.8905334v-4.9355087h-1.23769V94.5291138z"/>
		<path d="M62.2931252,102.5895996c-0.0706558-0.090477-0.1280899-0.2190704-0.1733284-0.3847733
			c-0.0452385-0.166214-0.0782776-0.3852844-0.0981026-0.6567154h-0.0304947
			c-0.2617722,0.3522491-0.588604,0.6465454-0.9810028,0.8829041c-0.3924026,0.236351-0.910862,0.3547897-1.5548668,0.3547897
			c-0.3923988,0-0.7573547-0.0503235-1.0943527-0.1509628c-0.3369942-0.100647-0.6262131-0.2516098-0.8676529-0.4528885
			c-0.2414398-0.2012863-0.4330635-0.4503479-0.5738602-0.7471924s-0.2109413-0.6414642-0.2109413-1.0338669
			c0-0.4528885,0.0828514-0.8274994,0.2490616-1.1248474c0.1657028-0.2963333,0.3944359-0.5357361,0.6867027-0.7166901
			c0.2917595-0.180954,0.6389236-0.3192062,1.0414886-0.4152756c0.4020615-0.0955582,0.8452911-0.1733246,1.328167-0.2338104
			c0.6643372-0.0803146,1.1624641-0.1936646,1.4943771-0.3395386c0.3319168-0.1458817,0.498127-0.400032,0.498127-0.7624435
			c0-0.3522415-0.1209717-0.6338348-0.3624115-0.8452835c-0.2414398-0.2114563-0.6038513-0.3166656-1.0867271-0.3166656
			c-0.5433655,0-0.9484749,0.1153793-1.214817,0.3471603c-0.2668533,0.2312698-0.4101944,0.5484467-0.4305229,0.9505081h-1.8110466
			c0.0096588-0.3415756,0.0879364-0.6714554,0.2338142-0.9886322c0.1458817-0.3166656,0.3624153-0.5962219,0.6490898-0.8376617
			c0.2866783-0.2414398,0.6414642-0.4350967,1.0643616-0.5809784c0.4223938-0.1458817,0.920517-0.2190781,1.4938698-0.2190781
			c0.4630547,0,0.8732452,0.0355835,1.2305756,0.1057281c0.356823,0.0706558,0.6663704,0.1916275,0.9281425,0.3624115
			c0.7644691,0.4630508,1.147213,1.228035,1.147213,2.294426v4.241188c0,0.332428,0.0274467,0.5886002,0.0828514,0.7700653
			c0.0554047,0.180954,0.1286011,0.3019257,0.2190704,0.3619003v0.1362228H62.2931252z M60.0139427,101.472374
			c0.3319168,0,0.6236763-0.0528641,0.8752785-0.1585846c0.251606-0.105217,0.4630547-0.2414398,0.6343498-0.4071426
			c0.170784-0.166214,0.3019257-0.3573303,0.3923988-0.5738602c0.090477-0.2160263,0.1357155-0.4401779,0.1357155-0.6714554
			v-1.1924515c-0.1911163,0.1204681-0.4279823,0.2241592-0.7095757,0.3095474
			c-0.2815933,0.0853958-0.5682716,0.1580811-0.8600311,0.2185669c-0.5941925,0.1108093-1.0516548,0.2541504-1.3739128,0.4300156
			c-0.3217468,0.1763763-0.4828758,0.4859238-0.4828758,0.9286499c0,0.2109375,0.0376129,0.3898621,0.1133499,0.5357361
			c0.0752258,0.1458817,0.175869,0.2617722,0.3019257,0.347168c0.1255455,0.0853882,0.2739677,0.145874,0.4452629,0.1809464
			C59.6566162,101.4550934,59.8329926,101.472374,60.0139427,101.472374z"/>
		<path d="M64.0289383,94.5291138h1.2376938v-2.5658569h1.8867798v2.5658569h1.6153488v1.3134232h-1.6153488v4.5131226
			c0,0.2917557,0.0757294,0.4905014,0.2266922,0.5962219c0.1509628,0.1057281,0.361908,0.1585922,0.6338425,0.1585922
			c0.1006393,0,0.2083969-0.0050812,0.3242874-0.0152512c0.1158905-0.0101624,0.2139969-0.0249023,0.2943039-0.0452347h0.0909882
			v1.4943771c-0.1611328,0.0299911-0.347168,0.0574341-0.5586166,0.0828476
			c-0.2114487,0.02491-0.4478073,0.0376129-0.7095718,0.0376129c-0.322258,0-0.6185913-0.0325241-0.8905334-0.0980988
			c-0.2719345-0.0650635-0.5032043-0.170784-0.6943207-0.3166656s-0.3395386-0.3400497-0.4452667-0.5814819
			c-0.1057205-0.2414398-0.1585846-0.5382843-0.1585846-0.8905334v-4.9355087h-1.2376938V94.5291138z"/>
		<path d="M73.1609116,102.8310394c-0.6440048,0-1.2204132-0.1108093-1.7281952-0.3319168
			c-0.5082932-0.221611-0.9388123-0.5235367-1.2905502-0.905777c-0.3527527-0.3822327-0.6216431-0.8325806-0.8076782-1.3510361
			c-0.1865387-0.517952-0.2790527-1.0740204-0.2790527-1.6677017c0-0.6038513,0.0950546-1.1650085,0.2866821-1.6829605
			c0.1911163-0.5184555,0.4625397-0.9688034,0.8147888-1.3510361s0.7751465-0.6816177,1.2681885-0.8981552
			c0.493042-0.2165298,1.0364075-0.3247986,1.6300888-0.3247986c0.593689,0,1.1192627,0.0981064,1.5772324,0.2943039
			c0.4579697,0.1962051,0.8579941,0.4757614,1.2000732,0.8381729c0.3924026,0.4223938,0.684166,0.9383087,0.8752823,1.54673
			c0.1911163,0.6089325,0.2815933,1.2905579,0.2719345,2.045372H70.956955
			c0.0706558,0.6943207,0.2892227,1.2554779,0.6567154,1.6829529c0.3669891,0.4279785,0.8879852,0.6414642,1.5624847,0.6414642
			c0.4625473,0,0.8422394-0.092514,1.139595-0.2790527c0.2963333-0.1860352,0.5103226-0.4452667,0.6414642-0.7771835h1.8715286
			c-0.1006393,0.361908-0.2541428,0.6968689-0.4605103,1.0033722c-0.2063675,0.307518-0.4655991,0.5738602-0.7771835,0.8000488
			c-0.312088,0.2266998-0.6719589,0.4025726-1.0791016,0.5286255
			C74.1043015,102.768013,73.6539536,102.8310394,73.1609116,102.8310394z M73.0551834,95.7063141
			c-0.6338348,0-1.1167145,0.1961975-1.4491348,0.5891113c-0.3319168,0.3924026-0.5382843,0.9052658-0.6185913,1.5396118h4.0149918
			c-0.0406647-0.6643372-0.2292404-1.1853333-0.5662384-1.5624847S73.6387024,95.7063141,73.0551834,95.7063141z"/>
		<path d="M79.5907974,95.7063141h0.0452423c0.261261-0.4528885,0.6007996-0.7970047,1.0186157-1.0338669
			c0.4178162-0.236351,0.9133987-0.3547897,1.4867554-0.3547897c0.8757858,0,1.5574036,0.2490692,2.0453644,0.7471924
			s0.7319412,1.1848297,0.7319412,2.0606155v5.4641342h-1.9167709V97.442131c0-0.4828796-0.1336823-0.8600311-0.4000244-1.1319656
			c-0.2668533-0.271431-0.6465454-0.4076538-1.1395874-0.4076538c-0.2719421,0-0.5184631,0.0482941-0.7395706,0.1438522
			c-0.221611,0.0955582-0.4127274,0.2312698-0.5738602,0.4071426c-0.1606216,0.1763763-0.2866745,0.3852844-0.3771515,0.6267166
			c-0.090477,0.2414398-0.1357117,0.503212-0.1357117,0.7848053v4.7245712h-1.9172745v-8.0604858h1.8720322V95.7063141z"/>
	</g>
</g>
</svg>
