<svg id="logoNorskHvit" data-name="Layer 1" xmlns="http://www.w3.org/2000/svg" viewBox="0 0 166.25 198.22454"><title>Skatteetaten. Logo</title><rect x="2" y="2" width="162.25" height="162.25" fill="none" stroke="#fff" stroke-miterlimit="10" stroke-width="4"></rect><path d="M46.64554,87.7021c0,15.19891,22.58859,27.51967,50.44866,27.51967,27.86353,0,50.46242-12.32076,50.46242-27.51967,0-10.49137-10.75612-19.61413-26.59807-24.25288L97.13548,87.7021V73.889l23.82307-24.00879A86.22088,86.22088,0,0,0,97.0048,46.62039l.00691,13.56894C69.18946,60.21346,46.64554,72.52039,46.64554,87.7021Z" transform="translate(-16 -0.77546)" fill="#fff"></path><path d="M27.59062,199a13.25465,13.25465,0,0,1-3.93153-.53339,8.48537,8.48537,0,0,1-2.89385-1.49735,6.684,6.684,0,0,1-1.829-2.31878,7.47354,7.47354,0,0,1-.706-2.99471h4.0033q.432,4.14732,5.38524,4.14682a6.97634,6.97634,0,0,0,1.64186-.18716,4.25912,4.25912,0,0,0,1.36837-.57606,2.6888,2.6888,0,0,0,1.252-2.376,2.44208,2.44208,0,0,0-.38889-1.42462,3.09637,3.09637,0,0,0-1.10847-.95039,8.039,8.039,0,0,0-1.74174-.66236q-1.02264-.2735-2.28967-.56249-1.49834-.34475-2.83664-.74866a8.18358,8.18358,0,0,1-2.33332-1.09393,5.19416,5.19416,0,0,1-1.58366-1.74271,5.3867,5.3867,0,0,1-.5906-2.664,5.7019,5.7019,0,0,1,.5906-2.663,5.32714,5.32714,0,0,1,1.6564-1.90079,7.68969,7.68969,0,0,1,2.505-1.15211,12.14891,12.14891,0,0,1,3.1683-.38889,9.10668,9.10668,0,0,1,5.86044,1.68452A6.60662,6.60662,0,0,1,35.1928,183.045H31.30491A3.50361,3.50361,0,0,0,29.923,180.6118a5.025,5.025,0,0,0-3.0529-.84953,5.22737,5.22737,0,0,0-2.89385.705,2.25537,2.25537,0,0,0-1.08035,2.00164,1.98069,1.98069,0,0,0,.37434,1.23843,2.96055,2.96055,0,0,0,1.08035.835,9.07451,9.07451,0,0,0,1.69907.60514q.99355.25893,2.23149.51787,1.49832.31713,2.86573.74868a9.064,9.064,0,0,1,2.4332,1.16666,5.45314,5.45314,0,0,1,1.7,1.88623,5.92572,5.92572,0,0,1,.63328,2.88028,6.179,6.179,0,0,1-.63328,2.85118,5.97215,5.97215,0,0,1-1.74271,2.07342,8.1073,8.1073,0,0,1-2.63492,1.2811A11.75606,11.75606,0,0,1,27.59062,199Z" transform="translate(-16 -0.77546)" fill="#fff"></path><path d="M42.45071,191.13791l-1.81448,1.8135v5.55884H37.00728V177.08371h3.62895v8.29364q0,1.09539-.04267,2.10251-.04363,1.0081-.07273,1.67094l5.78868-6.01947H50.658l-5.64417,5.616,6.30654,9.76288H47.05818Z" transform="translate(-16 -0.77546)" fill="#fff"></path><path d="M61.60116,198.51025a2.092,2.092,0,0,1-.3307-.73413,6.819,6.819,0,0,1-.18717-1.253H61.0251a6.4454,6.4454,0,0,1-1.87169,1.68453,5.70582,5.70582,0,0,1-2.96659.67692,7.26863,7.26863,0,0,1-2.088-.288,4.60986,4.60986,0,0,1-1.65543-.86409,4.13871,4.13871,0,0,1-1.09489-1.42559,4.555,4.555,0,0,1-.40247-1.97256,4.35527,4.35527,0,0,1,.4752-2.14614,3.72083,3.72083,0,0,1,1.31019-1.3674,6.69655,6.69655,0,0,1,1.9871-.79232,23.79881,23.79881,0,0,1,2.53406-.4461,10.65775,10.65775,0,0,0,2.85118-.64782,1.47288,1.47288,0,0,0,.9504-1.45469,2.03718,2.03718,0,0,0-.69147-1.61275,3.07159,3.07159,0,0,0-2.07341-.60418,3.45642,3.45642,0,0,0-2.31779.66236,2.44944,2.44944,0,0,0-.82142,1.81351H51.69475a4.7994,4.7994,0,0,1,.4461-1.88625,4.59305,4.59305,0,0,1,1.23843-1.59821A6.31064,6.31064,0,0,1,55.41,183.14587a8.74579,8.74579,0,0,1,2.85022-.418,12.27436,12.27436,0,0,1,2.34786.20172,4.97722,4.97722,0,0,1,1.77084.69146,4.71737,4.71737,0,0,1,2.18882,4.37763v8.09193a5.2776,5.2776,0,0,0,.15807,1.46924,1.235,1.235,0,0,0,.418.69048v.25991Zm-4.34854-2.1316a4.28382,4.28382,0,0,0,1.67-.30257,3.86181,3.86181,0,0,0,1.21029-.7768,3.311,3.311,0,0,0,1.00761-2.376v-2.27513a5.57733,5.57733,0,0,1-1.35382.5906q-.80591.24439-1.64089.417a9.1065,9.1065,0,0,0-2.62134.82045,1.84668,1.84668,0,0,0-.9213,1.77181,2.20024,2.20024,0,0,0,.21626,1.02215,1.75222,1.75222,0,0,0,.57606.66237,2.32125,2.32125,0,0,0,.84953.34524A4.93209,4.93209,0,0,0,57.25262,196.37865Z" transform="translate(-16 -0.77546)" fill="#fff"></path><path d="M65.57536,183.13133h2.36143v-4.8955h3.59987v4.8955h3.082v2.50593h-3.082V194.248a1.30074,1.30074,0,0,0,.43252,1.13755,2.08339,2.08339,0,0,0,1.20933.30259c.192,0,.39762-.0097.61873-.0291a3.62624,3.62624,0,0,0,.5615-.08631h.1736v2.85118q-.46113.08585-1.0658.15807a11.63848,11.63848,0,0,1-1.35383.07177,7.23748,7.23748,0,0,1-1.69907-.18717,3.49237,3.49237,0,0,1-1.32473-.60418,2.75309,2.75309,0,0,1-.84954-1.10943,4.23385,4.23385,0,0,1-.30258-1.69909v-9.41665H65.57536Z" transform="translate(-16 -0.77546)" fill="#fff"></path><path d="M75.10742,183.13133h2.36144v-4.8955h3.59986v4.8955h3.082v2.50593h-3.082V194.248a1.30072,1.30072,0,0,0,.43253,1.13755,2.08339,2.08339,0,0,0,1.20933.30259c.192,0,.39761-.0097.61873-.0291a3.62644,3.62644,0,0,0,.5615-.08631h.17359v2.85118q-.46113.08585-1.06579.15807a11.63861,11.63861,0,0,1-1.35383.07177,7.23742,7.23742,0,0,1-1.69907-.18717,3.49242,3.49242,0,0,1-1.32474-.60418,2.75307,2.75307,0,0,1-.84953-1.10943,4.23385,4.23385,0,0,1-.30258-1.69909v-9.41665H75.10742Z" transform="translate(-16 -0.77546)" fill="#fff"></path><path d="M92.617,198.9709a8.18518,8.18518,0,0,1-3.29728-.63328,7.21757,7.21757,0,0,1-2.4623-1.72816,7.47271,7.47271,0,0,1-1.541-2.5777,9.32129,9.32129,0,0,1-.53241-3.18187,9.18415,9.18415,0,0,1,.547-3.211,7.67166,7.67166,0,0,1,1.55457-2.5777,7.1681,7.1681,0,0,1,2.41963-1.71362,8.22559,8.22559,0,0,1,6.11937-.05819,6.798,6.798,0,0,1,2.28968,1.59919,7.6193,7.6193,0,0,1,1.67,2.95107,12.462,12.462,0,0,1,.51884,3.90244H88.412a5.67212,5.67212,0,0,0,1.253,3.211,3.71291,3.71291,0,0,0,2.98114,1.22387,4.02857,4.02857,0,0,0,2.17426-.53241,3.01081,3.01081,0,0,0,1.22388-1.48282H99.615a6.54579,6.54579,0,0,1-.87863,1.91437,6.03437,6.03437,0,0,1-1.48281,1.52644,6.989,6.989,0,0,1-2.05887,1.00859A8.72948,8.72948,0,0,1,92.617,198.9709Zm-.20171-13.59355a3.41844,3.41844,0,0,0-2.76487,1.124,5.50726,5.50726,0,0,0-1.18024,2.93749h7.66037a4.77511,4.77511,0,0,0-1.08035-2.98113A3.3551,3.3551,0,0,0,92.41527,185.37735Z" transform="translate(-16 -0.77546)" fill="#fff"></path><path d="M108.94583,198.9709a8.18523,8.18523,0,0,1-3.29729-.63328,7.21776,7.21776,0,0,1-2.4623-1.72816,7.47256,7.47256,0,0,1-1.541-2.5777,9.32129,9.32129,0,0,1-.53241-3.18187,9.18415,9.18415,0,0,1,.547-3.211,7.67152,7.67152,0,0,1,1.55458-2.5777,7.168,7.168,0,0,1,2.41962-1.71362,8.22561,8.22561,0,0,1,6.11938-.05819,6.798,6.798,0,0,1,2.28967,1.59919,7.6193,7.6193,0,0,1,1.67,2.95107,12.46166,12.46166,0,0,1,.51884,3.90244H104.74081a5.67219,5.67219,0,0,0,1.253,3.211,3.71291,3.71291,0,0,0,2.98114,1.22387,4.02865,4.02865,0,0,0,2.17427-.53241,3.01091,3.01091,0,0,0,1.22388-1.48282h3.57076a6.54579,6.54579,0,0,1-.87863,1.91437,6.0342,6.0342,0,0,1-1.48281,1.52644,6.989,6.989,0,0,1-2.05887,1.00859A8.72946,8.72946,0,0,1,108.94583,198.9709Zm-.20173-13.59355a3.41844,3.41844,0,0,0-2.76486,1.124,5.50734,5.50734,0,0,0-1.18024,2.93749h7.66037a4.77516,4.77516,0,0,0-1.08034-2.98113A3.35516,3.35516,0,0,0,108.7441,185.37735Z" transform="translate(-16 -0.77546)" fill="#fff"></path><path d="M116.43357,183.13133H118.795v-4.8955h3.59986v4.8955h3.082v2.50593h-3.082V194.248a1.30075,1.30075,0,0,0,.43253,1.13755,2.08337,2.08337,0,0,0,1.20933.30259c.192,0,.39762-.0097.61873-.0291a3.62624,3.62624,0,0,0,.5615-.08631h.1736v2.85118q-.46114.08585-1.0658.15807a11.63848,11.63848,0,0,1-1.35383.07177,7.23742,7.23742,0,0,1-1.69907-.18717,3.49242,3.49242,0,0,1-1.32474-.60418,2.75307,2.75307,0,0,1-.84953-1.10943,4.23385,4.23385,0,0,1-.30258-1.69909v-9.41665h-2.36144Z" transform="translate(-16 -0.77546)" fill="#fff"></path><path d="M136.85154,198.51025a2.092,2.092,0,0,1-.3307-.73413,6.81887,6.81887,0,0,1-.18718-1.253h-.05818a6.4454,6.4454,0,0,1-1.87169,1.68453,5.70583,5.70583,0,0,1-2.9666.67692,7.26861,7.26861,0,0,1-2.08795-.288,4.60986,4.60986,0,0,1-1.65543-.86409,4.13874,4.13874,0,0,1-1.0949-1.42559,4.55514,4.55514,0,0,1-.40246-1.97256,4.35527,4.35527,0,0,1,.4752-2.14614,3.72088,3.72088,0,0,1,1.31018-1.3674,6.69666,6.69666,0,0,1,1.9871-.79232,23.79972,23.79972,0,0,1,2.53406-.4461,10.65774,10.65774,0,0,0,2.85119-.64782,1.47287,1.47287,0,0,0,.95039-1.45469,2.03717,2.03717,0,0,0-.69146-1.61275,3.07159,3.07159,0,0,0-2.07341-.60418,3.45645,3.45645,0,0,0-2.3178.66236,2.44943,2.44943,0,0,0-.82141,1.81351h-3.45537a4.79941,4.79941,0,0,1,.44611-1.88625,4.59314,4.59314,0,0,1,1.23842-1.59821,6.3108,6.3108,0,0,1,2.03074-1.10847,8.74573,8.74573,0,0,1,2.85021-.418,12.27454,12.27454,0,0,1,2.34787.20172,4.97729,4.97729,0,0,1,1.77084.69146,4.71736,4.71736,0,0,1,2.18881,4.37763v8.09193a5.27753,5.27753,0,0,0,.15808,1.46924,1.235,1.235,0,0,0,.418.69048v.25991Zm-4.34855-2.1316a4.28375,4.28375,0,0,0,1.67-.30257,3.86174,3.86174,0,0,0,1.2103-.7768,3.311,3.311,0,0,0,1.00761-2.376v-2.27513a5.57733,5.57733,0,0,1-1.35382.5906q-.8059.24439-1.64089.417a9.1064,9.1064,0,0,0-2.62134.82045,1.84668,1.84668,0,0,0-.9213,1.77181,2.20011,2.20011,0,0,0,.21626,1.02215,1.75222,1.75222,0,0,0,.57606.66237,2.32111,2.32111,0,0,0,.84953.34524A4.93206,4.93206,0,0,0,132.503,196.37865Z" transform="translate(-16 -0.77546)" fill="#fff"></path><path d="M140.16336,183.13133h2.36145v-4.8955h3.59986v4.8955h3.082v2.50593h-3.082V194.248a1.30072,1.30072,0,0,0,.43252,1.13755,2.08339,2.08339,0,0,0,1.20933.30259c.192,0,.39761-.0097.61872-.0291a3.62673,3.62673,0,0,0,.56152-.08631h.1736v2.85118q-.46116.08585-1.06581.15807a11.63843,11.63843,0,0,1-1.35382.07177,7.23772,7.23772,0,0,1-1.69909-.18717,3.4924,3.4924,0,0,1-1.32472-.60418,2.75318,2.75318,0,0,1-.84954-1.10943,4.234,4.234,0,0,1-.30257-1.69909v-9.41665h-2.36145Z" transform="translate(-16 -0.77546)" fill="#fff"></path><path d="M157.58662,198.9709a8.18523,8.18523,0,0,1-3.29729-.63328,7.21752,7.21752,0,0,1-2.46229-1.72816,7.47258,7.47258,0,0,1-1.541-2.5777,9.32153,9.32153,0,0,1-.53241-3.18187,9.18415,9.18415,0,0,1,.547-3.211,7.6715,7.6715,0,0,1,1.55457-2.5777,7.1681,7.1681,0,0,1,2.41963-1.71362,8.22559,8.22559,0,0,1,6.11937-.05819,6.798,6.798,0,0,1,2.28967,1.59919,7.61932,7.61932,0,0,1,1.67,2.95107,12.462,12.462,0,0,1,.51883,3.90244H153.3816a5.6722,5.6722,0,0,0,1.253,3.211,3.71288,3.71288,0,0,0,2.98112,1.22387,4.02864,4.02864,0,0,0,2.17428-.53241,3.01086,3.01086,0,0,0,1.22388-1.48282h3.57076a6.54551,6.54551,0,0,1-.87862,1.91437,6.03441,6.03441,0,0,1-1.48282,1.52644,6.989,6.989,0,0,1-2.05886,1.00859A8.72952,8.72952,0,0,1,157.58662,198.9709Zm-.20172-13.59355a3.41846,3.41846,0,0,0-2.76487,1.124,5.50726,5.50726,0,0,0-1.18023,2.93749h7.66036a4.77511,4.77511,0,0,0-1.08035-2.98113A3.35512,3.35512,0,0,0,157.3849,185.37735Z" transform="translate(-16 -0.77546)" fill="#fff"></path><path d="M169.85446,185.37735h.08632a5.18275,5.18275,0,0,1,1.94345-1.97255,5.66893,5.66893,0,0,1,2.83664-.67692,5.21272,5.21272,0,0,1,3.90243,1.4256,5.37658,5.37658,0,0,1,1.3965,3.93153v10.42524h-3.65708v-9.82106a2.95459,2.95459,0,0,0-.76322-2.15972,2.91215,2.91215,0,0,0-2.17427-.77778,3.52149,3.52149,0,0,0-1.411.27446,3.169,3.169,0,0,0-1.09489.7768,3.66565,3.66565,0,0,0-.71959,1.19574,4.23483,4.23483,0,0,0-.25892,1.49736v9.0142h-3.65805V183.13133h3.57173Z" transform="translate(-16 -0.77546)" fill="#fff"></path></svg>
